# xmcd
#
# Track frame offsets:
#	150
#	9362
#	23221
#	32894
#	44245
#	56997
#	69212
#	84965
#	99619
#	109375
#	121074
#	130503
#
# Disc length: 1838 seconds
#
# Revision: 0
# Processed by: cddbd v1.5.2PL0 Copyright (c) Steve Scherf et al.
# Submitted via: dBpowerAMP V4.0
#
DISCID=9b072c0c
DTITLE=Orange Blossom Special Band - Orange Blossom Special Band Reunion
DYEAR=2000
DGENRE=Bluegrass
TTITLE0=Let Old Mother Nature Have Her Way
TTITLE1=Borrowed Angle
TTITLE2=Orange Blossom Special
TTITLE3=Maidens Prayer/Faded Love
TTITLE4=Pride
TTITLE5=Blue Ridge Cabin Home
TTITLE6=The Texas Troubadour
TTITLE7=The Lonesome Fugitive
TTITLE8=Down Yonder
TTITLE9=Next Time Around
TTITLE10=Jambalaya
TTITLE11=Cajun Fiddle
EXTD=Orange Blossom Speacial Band
EXTT0=
EXTT1=
EXTT2=
EXTT3=
EXTT4=
EXTT5=
EXTT6=
EXTT7=
EXTT8=
EXTT9=
EXTT10=
EXTT11=
PLAYORDER=
